<?xml version="1.0" standalone="no"?>
<!DOCTYPE svg PUBLIC "-//W3C//DTD SVG 20010904//EN"
 "http://www.w3.org/TR/2001/REC-SVG-20010904/DTD/svg10.dtd">
<svg version="1.0" xmlns="http://www.w3.org/2000/svg"
 width="170.000000pt" height="170.000000pt" viewBox="0 0 170.000000 170.000000"
 preserveAspectRatio="xMidYMid meet">

<g transform="translate(0.000000,170.000000) scale(0.100000,-0.100000)"
fill="#000000" stroke="none">
<path d="M0 850 l0 -850 850 0 850 0 0 850 0 850 -850 0 -850 0 0 -850z m823
336 c23 -18 22 -29 -2 -16 -27 14 -71 12 -101 -5 -14 -8 -41 -14 -61 -15 l-36
0 -12 -81 c-10 -67 -10 -83 1 -91 7 -5 49 -6 94 -2 77 6 82 5 110 -21 16 -15
22 -23 14 -19 -13 7 -13 5 -1 -9 16 -21 31 -22 31 -3 0 8 12 24 28 36 24 20
35 21 107 16 109 -9 111 -7 95 93 -12 79 -13 81 -41 81 -16 0 -47 8 -70 17
-34 13 -50 14 -81 6 -38 -10 -38 -10 -22 8 20 23 64 24 119 4 22 -8 54 -14 70
-15 43 -1 59 -29 84 -145 31 -149 42 -135 -109 -135 -103 0 -136 -3 -155 -16
-26 -17 -75 -13 -75 6 0 6 -55 10 -140 10 -127 0 -140 2 -140 18 1 46 48 227
58 225 7 -2 12 6 12 17 0 16 7 20 33 21 17 0 48 6 67 13 46 18 101 19 123 2z
m27 -417 c0 -5 -7 -9 -15 -9 -15 0 -20 12 -9 23 8 8 24 -1 24 -14z m-310 -49
c0 -33 -4 -60 -10 -60 -6 0 -10 27 -10 60 0 33 4 60 10 60 6 0 10 -27 10 -60z
m247 35 c12 -13 13 -18 2 -31 -10 -13 -10 -20 0 -36 14 -23 9 -33 -12 -25 -21
8 -30 107 -10 107 2 0 11 -7 20 -15z m121 -2 c12 -12 13 -18 4 -21 -14 -4 -16
-52 -2 -52 6 0 10 -4 10 -10 0 -5 -9 -10 -20 -10 -16 0 -20 7 -20 34 0 19 -5
36 -12 38 -9 3 -8 9 2 21 19 20 18 20 38 0z m170 -3 c9 -14 9 -20 1 -20 -8 0
-10 -12 -6 -36 5 -29 3 -35 -11 -32 -17 3 -34 70 -25 95 7 19 27 16 41 -7z
m-440 -47 c4 -49 -15 -59 -20 -11 -4 46 -28 49 -28 4 0 -25 -4 -36 -15 -36
-11 0 -15 12 -15 45 l0 44 38 -2 c36 -2 37 -3 40 -44z m93 30 c13 -15 11 -16
-13 -9 -34 8 -37 -5 -5 -19 12 -6 22 -17 22 -25 0 -19 -66 -21 -73 -2 -3 11 0
12 18 2 12 -6 25 -8 28 -4 4 4 2 9 -4 11 -6 2 -20 10 -30 17 -15 12 -16 16 -5
30 17 21 45 20 62 -1z m119 -28 c0 -33 -4 -45 -15 -45 -11 0 -15 12 -15 45 0
33 4 45 15 45 11 0 15 -12 15 -45z m110 10 c0 -24 5 -35 15 -35 10 0 15 11 15
35 0 19 5 35 10 35 6 0 10 -20 10 -45 0 -45 0 -45 -35 -45 -35 0 -35 0 -35 45
0 25 5 45 10 45 6 0 10 -16 10 -35z m206 27 c34 -23 20 -82 -19 -82 -29 0 -47
18 -47 45 0 36 37 57 66 37z m-408 -184 c-2 -25 -8 -34 -25 -36 -20 -3 -23 1
-23 32 0 32 3 36 26 36 23 0 25 -3 22 -32z m70 0 c-2 -25 -8 -34 -25 -36 -19
-3 -23 1 -23 26 0 34 6 42 32 42 16 0 19 -6 16 -32z m46 10 c4 12 12 22 17 22
5 0 9 -10 10 -22 0 -23 0 -23 10 1 14 35 21 20 8 -17 -13 -37 -29 -42 -30 -9
l0 22 -11 -22 c-16 -34 -28 -28 -27 15 1 32 2 34 8 12 l7 -25 8 23z m92 7 c6
-14 8 -13 20 2 11 14 13 15 14 3 0 -25 -12 -60 -20 -60 -5 0 -12 10 -16 23
l-8 22 -7 -25 c-6 -22 -7 -20 -8 13 -1 37 14 50 25 22z"/>
<path d="M572 1045 c-7 -44 -16 -92 -19 -107 -5 -26 -3 -28 31 -28 20 0 63 9
97 21 33 12 75 19 94 17 18 -2 31 0 29 4 -8 13 -68 9 -114 -7 -23 -8 -60 -15
-81 -15 -45 0 -46 6 -28 104 5 31 9 65 7 74 -2 9 -9 -19 -16 -63z"/>
<path d="M1112 1100 c0 -14 2 -19 5 -12 2 6 2 18 0 25 -3 6 -5 1 -5 -13z"/>
<path d="M1122 1050 c-1 -14 3 -46 7 -72 7 -40 5 -48 -8 -49 -37 -3 -78 4
-110 17 -18 8 -50 13 -70 13 -33 -2 -34 -2 -6 -6 17 -2 56 -13 88 -24 66 -22
127 -25 126 -6 -1 31 -27 149 -27 127z"/>
<path d="M1130 706 c0 -17 5 -26 16 -26 10 0 14 7 12 22 -5 32 -28 35 -28 4z"/>
<path d="M727 573 c-4 -3 -7 -15 -7 -25 0 -26 24 -17 28 10 3 21 -8 29 -21 15z"/>
<path d="M797 573 c-4 -3 -7 -15 -7 -25 0 -26 24 -17 28 10 3 21 -8 29 -21 15z"/>
</g>
</svg>
